<?xml version="1.0" encoding="utf-8" standalone="no"?>
<!DOCTYPE svg PUBLIC "-//W3C//DTD SVG 1.1//EN"
  "http://www.w3.org/Graphics/SVG/1.1/DTD/svg11.dtd">
<!-- Created with matplotlib (https://matplotlib.org/) -->
<svg height="518.4pt" version="1.1" viewBox="0 0 518.4 518.4" width="518.4pt" xmlns="http://www.w3.org/2000/svg" xmlns:xlink="http://www.w3.org/1999/xlink">
 <defs>
  <style type="text/css">
*{stroke-linecap:butt;stroke-linejoin:round;}
  </style>
 </defs>
 <g id="figure_1">
  <g id="patch_1">
   <path d="M 0 518.4 
L 518.4 518.4 
L 518.4 0 
L 0 0 
z
" style="fill:#ffffff;"/>
  </g>
  <g id="axes_1">
   <g id="patch_2">
    <path d="M 64.8 461.376 
L 466.56 461.376 
L 466.56 62.208 
L 64.8 62.208 
z
" style="fill:#ffffff;"/>
   </g>
   <g id="PathCollection_1">
    <defs>
     <path d="M 0 0.273861 
C 0.072629 0.273861 0.142293 0.245006 0.193649 0.193649 
C 0.245006 0.142293 0.273861 0.072629 0.273861 0 
C 0.273861 -0.072629 0.245006 -0.142293 0.193649 -0.193649 
C 0.142293 -0.245006 0.072629 -0.273861 0 -0.273861 
C -0.072629 -0.273861 -0.142293 -0.245006 -0.193649 -0.193649 
C -0.245006 -0.142293 -0.273861 -0.072629 -0.273861 0 
C -0.273861 0.072629 -0.245006 0.142293 -0.193649 0.193649 
C -0.142293 0.245006 -0.072629 0.273861 0 0.273861 
z
" id="md8c17b2a59" style="stroke:#ff0000;"/>
    </defs>
    <g clip-path="url(#p12b79a6fb2)">
     <use style="fill:#ff0000;stroke:#ff0000;" x="83.064087" xlink:href="#md8c17b2a59" y="443.229731"/>
     <use style="fill:#ff0000;stroke:#ff0000;" x="87.687275" xlink:href="#md8c17b2a59" y="438.636371"/>
     <use style="fill:#ff0000;stroke:#ff0000;" x="92.310463" xlink:href="#md8c17b2a59" y="434.04301"/>
     <use style="fill:#ff0000;stroke:#ff0000;" x="96.93365" xlink:href="#md8c17b2a59" y="429.44965"/>
     <use style="fill:#ff0000;stroke:#ff0000;" x="101.556838" xlink:href="#md8c17b2a59" y="424.85629"/>
     <use style="fill:#ff0000;stroke:#ff0000;" x="106.180026" xlink:href="#md8c17b2a59" y="420.26293"/>
     <use style="fill:#ff0000;stroke:#ff0000;" x="369.701722" xlink:href="#md8c17b2a59" y="420.26293"/>
     <use style="fill:#ff0000;stroke:#ff0000;" x="110.803213" xlink:href="#md8c17b2a59" y="415.669569"/>
     <use style="fill:#ff0000;stroke:#ff0000;" x="277.237969" xlink:href="#md8c17b2a59" y="296.242202"/>
     <use style="fill:#ff0000;stroke:#ff0000;" x="235.62928" xlink:href="#md8c17b2a59" y="291.648842"/>
     <use style="fill:#ff0000;stroke:#ff0000;" x="240.252468" xlink:href="#md8c17b2a59" y="287.055482"/>
     <use style="fill:#ff0000;stroke:#ff0000;" x="244.875656" xlink:href="#md8c17b2a59" y="282.462121"/>
     <use style="fill:#ff0000;stroke:#ff0000;" x="249.498843" xlink:href="#md8c17b2a59" y="277.868761"/>
     <use style="fill:#ff0000;stroke:#ff0000;" x="254.122031" xlink:href="#md8c17b2a59" y="273.275401"/>
     <use style="fill:#ff0000;stroke:#ff0000;" x="258.745219" xlink:href="#md8c17b2a59" y="268.68204"/>
     <use style="fill:#ff0000;stroke:#ff0000;" x="263.368406" xlink:href="#md8c17b2a59" y="264.08868"/>
     <use style="fill:#ff0000;stroke:#ff0000;" x="267.991594" xlink:href="#md8c17b2a59" y="259.49532"/>
     <use style="fill:#ff0000;stroke:#ff0000;" x="272.614781" xlink:href="#md8c17b2a59" y="254.90196"/>
     <use style="fill:#ff0000;stroke:#ff0000;" x="277.237969" xlink:href="#md8c17b2a59" y="250.308599"/>
     <use style="fill:#ff0000;stroke:#ff0000;" x="281.861157" xlink:href="#md8c17b2a59" y="245.715239"/>
     <use style="fill:#ff0000;stroke:#ff0000;" x="286.484344" xlink:href="#md8c17b2a59" y="241.121879"/>
     <use style="fill:#ff0000;stroke:#ff0000;" x="291.107532" xlink:href="#md8c17b2a59" y="236.528518"/>
     <use style="fill:#ff0000;stroke:#ff0000;" x="295.73072" xlink:href="#md8c17b2a59" y="231.935158"/>
     <use style="fill:#ff0000;stroke:#ff0000;" x="300.353907" xlink:href="#md8c17b2a59" y="227.341798"/>
     <use style="fill:#ff0000;stroke:#ff0000;" x="304.977095" xlink:href="#md8c17b2a59" y="222.748438"/>
     <use style="fill:#ff0000;stroke:#ff0000;" x="309.600283" xlink:href="#md8c17b2a59" y="218.155077"/>
     <use style="fill:#ff0000;stroke:#ff0000;" x="314.22347" xlink:href="#md8c17b2a59" y="213.561717"/>
     <use style="fill:#ff0000;stroke:#ff0000;" x="318.846658" xlink:href="#md8c17b2a59" y="208.968357"/>
     <use style="fill:#ff0000;stroke:#ff0000;" x="323.469846" xlink:href="#md8c17b2a59" y="204.374997"/>
     <use style="fill:#ff0000;stroke:#ff0000;" x="328.093033" xlink:href="#md8c17b2a59" y="199.781636"/>
     <use style="fill:#ff0000;stroke:#ff0000;" x="332.716221" xlink:href="#md8c17b2a59" y="195.188276"/>
     <use style="fill:#ff0000;stroke:#ff0000;" x="147.788715" xlink:href="#md8c17b2a59" y="190.594916"/>
     <use style="fill:#ff0000;stroke:#ff0000;" x="337.339409" xlink:href="#md8c17b2a59" y="190.594916"/>
     <use style="fill:#ff0000;stroke:#ff0000;" x="341.962596" xlink:href="#md8c17b2a59" y="186.001555"/>
     <use style="fill:#ff0000;stroke:#ff0000;" x="346.585784" xlink:href="#md8c17b2a59" y="181.408195"/>
     <use style="fill:#ff0000;stroke:#ff0000;" x="351.208972" xlink:href="#md8c17b2a59" y="176.814835"/>
     <use style="fill:#ff0000;stroke:#ff0000;" x="355.832159" xlink:href="#md8c17b2a59" y="172.221475"/>
     <use style="fill:#ff0000;stroke:#ff0000;" x="360.455347" xlink:href="#md8c17b2a59" y="167.628114"/>
     <use style="fill:#ff0000;stroke:#ff0000;" x="365.078535" xlink:href="#md8c17b2a59" y="163.034754"/>
     <use style="fill:#ff0000;stroke:#ff0000;" x="106.180026" xlink:href="#md8c17b2a59" y="158.441394"/>
     <use style="fill:#ff0000;stroke:#ff0000;" x="369.701722" xlink:href="#md8c17b2a59" y="158.441394"/>
     <use style="fill:#ff0000;stroke:#ff0000;" x="374.32491" xlink:href="#md8c17b2a59" y="153.848033"/>
     <use style="fill:#ff0000;stroke:#ff0000;" x="378.948098" xlink:href="#md8c17b2a59" y="149.254673"/>
     <use style="fill:#ff0000;stroke:#ff0000;" x="383.571285" xlink:href="#md8c17b2a59" y="144.661313"/>
     <use style="fill:#ff0000;stroke:#ff0000;" x="388.194473" xlink:href="#md8c17b2a59" y="140.067953"/>
     <use style="fill:#ff0000;stroke:#ff0000;" x="392.817661" xlink:href="#md8c17b2a59" y="135.474592"/>
     <use style="fill:#ff0000;stroke:#ff0000;" x="397.440848" xlink:href="#md8c17b2a59" y="130.881232"/>
     <use style="fill:#ff0000;stroke:#ff0000;" x="402.064036" xlink:href="#md8c17b2a59" y="126.287872"/>
     <use style="fill:#ff0000;stroke:#ff0000;" x="406.687224" xlink:href="#md8c17b2a59" y="121.694512"/>
     <use style="fill:#ff0000;stroke:#ff0000;" x="411.310411" xlink:href="#md8c17b2a59" y="117.101151"/>
     <use style="fill:#ff0000;stroke:#ff0000;" x="415.933599" xlink:href="#md8c17b2a59" y="112.507791"/>
     <use style="fill:#ff0000;stroke:#ff0000;" x="115.426401" xlink:href="#md8c17b2a59" y="107.914431"/>
     <use style="fill:#ff0000;stroke:#ff0000;" x="420.556787" xlink:href="#md8c17b2a59" y="107.914431"/>
     <use style="fill:#ff0000;stroke:#ff0000;" x="425.179974" xlink:href="#md8c17b2a59" y="103.32107"/>
     <use style="fill:#ff0000;stroke:#ff0000;" x="429.803162" xlink:href="#md8c17b2a59" y="98.72771"/>
     <use style="fill:#ff0000;stroke:#ff0000;" x="434.42635" xlink:href="#md8c17b2a59" y="94.13435"/>
     <use style="fill:#ff0000;stroke:#ff0000;" x="439.049537" xlink:href="#md8c17b2a59" y="89.54099"/>
     <use style="fill:#ff0000;stroke:#ff0000;" x="443.672725" xlink:href="#md8c17b2a59" y="84.947629"/>
     <use style="fill:#ff0000;stroke:#ff0000;" x="448.295913" xlink:href="#md8c17b2a59" y="80.354269"/>
    </g>
   </g>
   <g id="PathCollection_2">
    <defs>
     <path d="M 0 0.273861 
C 0.072629 0.273861 0.142293 0.245006 0.193649 0.193649 
C 0.245006 0.142293 0.273861 0.072629 0.273861 0 
C 0.273861 -0.072629 0.245006 -0.142293 0.193649 -0.193649 
C 0.142293 -0.245006 0.072629 -0.273861 0 -0.273861 
C -0.072629 -0.273861 -0.142293 -0.245006 -0.193649 -0.193649 
C -0.245006 -0.142293 -0.273861 -0.072629 -0.273861 0 
C -0.273861 0.072629 -0.245006 0.142293 -0.193649 0.193649 
C -0.142293 0.245006 -0.072629 0.273861 0 0.273861 
z
" id="mdba6eaad0c" style="stroke:#008000;"/>
    </defs>
    <g clip-path="url(#p12b79a6fb2)">
     <use style="fill:#008000;stroke:#008000;" x="378.948098" xlink:href="#mdba6eaad0c" y="98.72771"/>
     <use style="fill:#008000;stroke:#008000;" x="383.571285" xlink:href="#mdba6eaad0c" y="103.32107"/>
     <use style="fill:#008000;stroke:#008000;" x="411.310411" xlink:href="#mdba6eaad0c" y="112.507791"/>
     <use style="fill:#008000;stroke:#008000;" x="415.933599" xlink:href="#mdba6eaad0c" y="117.101151"/>
     <use style="fill:#008000;stroke:#008000;" x="425.179974" xlink:href="#mdba6eaad0c" y="144.661313"/>
     <use style="fill:#008000;stroke:#008000;" x="429.803162" xlink:href="#mdba6eaad0c" y="149.254673"/>
     <use style="fill:#008000;stroke:#008000;" x="254.122031" xlink:href="#mdba6eaad0c" y="195.188276"/>
     <use style="fill:#008000;stroke:#008000;" x="235.62928" xlink:href="#mdba6eaad0c" y="222.748438"/>
     <use style="fill:#008000;stroke:#008000;" x="332.716221" xlink:href="#mdba6eaad0c" y="273.275401"/>
     <use style="fill:#008000;stroke:#008000;" x="304.977095" xlink:href="#mdba6eaad0c" y="291.648842"/>
     <use style="fill:#008000;stroke:#008000;" x="129.295964" xlink:href="#mdba6eaad0c" y="310.022283"/>
     <use style="fill:#008000;stroke:#008000;" x="133.919152" xlink:href="#mdba6eaad0c" y="314.615643"/>
     <use style="fill:#008000;stroke:#008000;" x="138.542339" xlink:href="#mdba6eaad0c" y="319.209003"/>
     <use style="fill:#008000;stroke:#008000;" x="143.165527" xlink:href="#mdba6eaad0c" y="323.802364"/>
     <use style="fill:#008000;stroke:#008000;" x="147.788715" xlink:href="#mdba6eaad0c" y="328.395724"/>
     <use style="fill:#008000;stroke:#008000;" x="337.339409" xlink:href="#mdba6eaad0c" y="328.395724"/>
     <use style="fill:#008000;stroke:#008000;" x="152.411902" xlink:href="#mdba6eaad0c" y="332.989084"/>
     <use style="fill:#008000;stroke:#008000;" x="157.03509" xlink:href="#mdba6eaad0c" y="337.582445"/>
     <use style="fill:#008000;stroke:#008000;" x="161.658278" xlink:href="#mdba6eaad0c" y="342.175805"/>
     <use style="fill:#008000;stroke:#008000;" x="166.281465" xlink:href="#mdba6eaad0c" y="346.769165"/>
     <use style="fill:#008000;stroke:#008000;" x="170.904653" xlink:href="#mdba6eaad0c" y="351.362525"/>
     <use style="fill:#008000;stroke:#008000;" x="175.527841" xlink:href="#mdba6eaad0c" y="355.955886"/>
     <use style="fill:#008000;stroke:#008000;" x="180.151028" xlink:href="#mdba6eaad0c" y="360.549246"/>
     <use style="fill:#008000;stroke:#008000;" x="184.774216" xlink:href="#mdba6eaad0c" y="365.142606"/>
     <use style="fill:#008000;stroke:#008000;" x="189.397404" xlink:href="#mdba6eaad0c" y="369.735967"/>
     <use style="fill:#008000;stroke:#008000;" x="194.020591" xlink:href="#mdba6eaad0c" y="374.329327"/>
     <use style="fill:#008000;stroke:#008000;" x="198.643779" xlink:href="#mdba6eaad0c" y="378.922687"/>
     <use style="fill:#008000;stroke:#008000;" x="203.266967" xlink:href="#mdba6eaad0c" y="383.516047"/>
     <use style="fill:#008000;stroke:#008000;" x="207.890154" xlink:href="#mdba6eaad0c" y="388.109408"/>
     <use style="fill:#008000;stroke:#008000;" x="212.513342" xlink:href="#mdba6eaad0c" y="392.702768"/>
     <use style="fill:#008000;stroke:#008000;" x="217.13653" xlink:href="#mdba6eaad0c" y="397.296128"/>
    </g>
   </g>
   <g id="matplotlib.axis_1">
    <g id="xtick_1">
     <g id="line2d_1">
      <path clip-path="url(#p12b79a6fb2)" d="M 78.4409 461.376 
L 78.4409 62.208 
" style="fill:none;stroke:#b0b0b0;stroke-linecap:square;stroke-width:0.1;"/>
     </g>
     <g id="line2d_2">
      <defs>
       <path d="M 0 0 
L 0 3.5 
" id="md64404323c" style="stroke:#000000;stroke-width:0.8;"/>
      </defs>
      <g>
       <use style="stroke:#000000;stroke-width:0.8;" x="78.4409" xlink:href="#md64404323c" y="461.376"/>
      </g>
     </g>
     <g id="text_1">
      <!-- 0 -->
      <defs>
       <path d="M 31.78125 66.40625 
Q 24.171875 66.40625 20.328125 58.90625 
Q 16.5 51.421875 16.5 36.375 
Q 16.5 21.390625 20.328125 13.890625 
Q 24.171875 6.390625 31.78125 6.390625 
Q 39.453125 6.390625 43.28125 13.890625 
Q 47.125 21.390625 47.125 36.375 
Q 47.125 51.421875 43.28125 58.90625 
Q 39.453125 66.40625 31.78125 66.40625 
z
M 31.78125 74.21875 
Q 44.046875 74.21875 50.515625 64.515625 
Q 56.984375 54.828125 56.984375 36.375 
Q 56.984375 17.96875 50.515625 8.265625 
Q 44.046875 -1.421875 31.78125 -1.421875 
Q 19.53125 -1.421875 13.0625 8.265625 
Q 6.59375 17.96875 6.59375 36.375 
Q 6.59375 54.828125 13.0625 64.515625 
Q 19.53125 74.21875 31.78125 74.21875 
z
" id="DejaVuSans-48"/>
      </defs>
      <g transform="translate(75.25965 475.974437)scale(0.1 -0.1)">
       <use xlink:href="#DejaVuSans-48"/>
      </g>
     </g>
    </g>
    <g id="xtick_2">
     <g id="line2d_3">
      <path clip-path="url(#p12b79a6fb2)" d="M 124.672776 461.376 
L 124.672776 62.208 
" style="fill:none;stroke:#b0b0b0;stroke-linecap:square;stroke-width:0.1;"/>
     </g>
     <g id="line2d_4">
      <g>
       <use style="stroke:#000000;stroke-width:0.8;" x="124.672776" xlink:href="#md64404323c" y="461.376"/>
      </g>
     </g>
     <g id="text_2">
      <!-- 10 -->
      <defs>
       <path d="M 12.40625 8.296875 
L 28.515625 8.296875 
L 28.515625 63.921875 
L 10.984375 60.40625 
L 10.984375 69.390625 
L 28.421875 72.90625 
L 38.28125 72.90625 
L 38.28125 8.296875 
L 54.390625 8.296875 
L 54.390625 0 
L 12.40625 0 
z
" id="DejaVuSans-49"/>
      </defs>
      <g transform="translate(118.310276 475.974437)scale(0.1 -0.1)">
       <use xlink:href="#DejaVuSans-49"/>
       <use x="63.623047" xlink:href="#DejaVuSans-48"/>
      </g>
     </g>
    </g>
    <g id="xtick_3">
     <g id="line2d_5">
      <path clip-path="url(#p12b79a6fb2)" d="M 170.904653 461.376 
L 170.904653 62.208 
" style="fill:none;stroke:#b0b0b0;stroke-linecap:square;stroke-width:0.1;"/>
     </g>
     <g id="line2d_6">
      <g>
       <use style="stroke:#000000;stroke-width:0.8;" x="170.904653" xlink:href="#md64404323c" y="461.376"/>
      </g>
     </g>
     <g id="text_3">
      <!-- 20 -->
      <defs>
       <path d="M 19.1875 8.296875 
L 53.609375 8.296875 
L 53.609375 0 
L 7.328125 0 
L 7.328125 8.296875 
Q 12.9375 14.109375 22.625 23.890625 
Q 32.328125 33.6875 34.8125 36.53125 
Q 39.546875 41.84375 41.421875 45.53125 
Q 43.3125 49.21875 43.3125 52.78125 
Q 43.3125 58.59375 39.234375 62.25 
Q 35.15625 65.921875 28.609375 65.921875 
Q 23.96875 65.921875 18.8125 64.3125 
Q 13.671875 62.703125 7.8125 59.421875 
L 7.8125 69.390625 
Q 13.765625 71.78125 18.9375 73 
Q 24.125 74.21875 28.421875 74.21875 
Q 39.75 74.21875 46.484375 68.546875 
Q 53.21875 62.890625 53.21875 53.421875 
Q 53.21875 48.921875 51.53125 44.890625 
Q 49.859375 40.875 45.40625 35.40625 
Q 44.1875 33.984375 37.640625 27.21875 
Q 31.109375 20.453125 19.1875 8.296875 
z
" id="DejaVuSans-50"/>
      </defs>
      <g transform="translate(164.542153 475.974437)scale(0.1 -0.1)">
       <use xlink:href="#DejaVuSans-50"/>
       <use x="63.623047" xlink:href="#DejaVuSans-48"/>
      </g>
     </g>
    </g>
    <g id="xtick_4">
     <g id="line2d_7">
      <path clip-path="url(#p12b79a6fb2)" d="M 217.13653 461.376 
L 217.13653 62.208 
" style="fill:none;stroke:#b0b0b0;stroke-linecap:square;stroke-width:0.1;"/>
     </g>
     <g id="line2d_8">
      <g>
       <use style="stroke:#000000;stroke-width:0.8;" x="217.13653" xlink:href="#md64404323c" y="461.376"/>
      </g>
     </g>
     <g id="text_4">
      <!-- 30 -->
      <defs>
       <path d="M 40.578125 39.3125 
Q 47.65625 37.796875 51.625 33 
Q 55.609375 28.21875 55.609375 21.1875 
Q 55.609375 10.40625 48.1875 4.484375 
Q 40.765625 -1.421875 27.09375 -1.421875 
Q 22.515625 -1.421875 17.65625 -0.515625 
Q 12.796875 0.390625 7.625 2.203125 
L 7.625 11.71875 
Q 11.71875 9.328125 16.59375 8.109375 
Q 21.484375 6.890625 26.8125 6.890625 
Q 36.078125 6.890625 40.9375 10.546875 
Q 45.796875 14.203125 45.796875 21.1875 
Q 45.796875 27.640625 41.28125 31.265625 
Q 36.765625 34.90625 28.71875 34.90625 
L 20.21875 34.90625 
L 20.21875 43.015625 
L 29.109375 43.015625 
Q 36.375 43.015625 40.234375 45.921875 
Q 44.09375 48.828125 44.09375 54.296875 
Q 44.09375 59.90625 40.109375 62.90625 
Q 36.140625 65.921875 28.71875 65.921875 
Q 24.65625 65.921875 20.015625 65.03125 
Q 15.375 64.15625 9.8125 62.3125 
L 9.8125 71.09375 
Q 15.4375 72.65625 20.34375 73.4375 
Q 25.25 74.21875 29.59375 74.21875 
Q 40.828125 74.21875 47.359375 69.109375 
Q 53.90625 64.015625 53.90625 55.328125 
Q 53.90625 49.265625 50.4375 45.09375 
Q 46.96875 40.921875 40.578125 39.3125 
z
" id="DejaVuSans-51"/>
      </defs>
      <g transform="translate(210.77403 475.974437)scale(0.1 -0.1)">
       <use xlink:href="#DejaVuSans-51"/>
       <use x="63.623047" xlink:href="#DejaVuSans-48"/>
      </g>
     </g>
    </g>
    <g id="xtick_5">
     <g id="line2d_9">
      <path clip-path="url(#p12b79a6fb2)" d="M 263.368406 461.376 
L 263.368406 62.208 
" style="fill:none;stroke:#b0b0b0;stroke-linecap:square;stroke-width:0.1;"/>
     </g>
     <g id="line2d_10">
      <g>
       <use style="stroke:#000000;stroke-width:0.8;" x="263.368406" xlink:href="#md64404323c" y="461.376"/>
      </g>
     </g>
     <g id="text_5">
      <!-- 40 -->
      <defs>
       <path d="M 37.796875 64.3125 
L 12.890625 25.390625 
L 37.796875 25.390625 
z
M 35.203125 72.90625 
L 47.609375 72.90625 
L 47.609375 25.390625 
L 58.015625 25.390625 
L 58.015625 17.1875 
L 47.609375 17.1875 
L 47.609375 0 
L 37.796875 0 
L 37.796875 17.1875 
L 4.890625 17.1875 
L 4.890625 26.703125 
z
" id="DejaVuSans-52"/>
      </defs>
      <g transform="translate(257.005906 475.974437)scale(0.1 -0.1)">
       <use xlink:href="#DejaVuSans-52"/>
       <use x="63.623047" xlink:href="#DejaVuSans-48"/>
      </g>
     </g>
    </g>
    <g id="xtick_6">
     <g id="line2d_11">
      <path clip-path="url(#p12b79a6fb2)" d="M 309.600283 461.376 
L 309.600283 62.208 
" style="fill:none;stroke:#b0b0b0;stroke-linecap:square;stroke-width:0.1;"/>
     </g>
     <g id="line2d_12">
      <g>
       <use style="stroke:#000000;stroke-width:0.8;" x="309.600283" xlink:href="#md64404323c" y="461.376"/>
      </g>
     </g>
     <g id="text_6">
      <!-- 50 -->
      <defs>
       <path d="M 10.796875 72.90625 
L 49.515625 72.90625 
L 49.515625 64.59375 
L 19.828125 64.59375 
L 19.828125 46.734375 
Q 21.96875 47.46875 24.109375 47.828125 
Q 26.265625 48.1875 28.421875 48.1875 
Q 40.625 48.1875 47.75 41.5 
Q 54.890625 34.8125 54.890625 23.390625 
Q 54.890625 11.625 47.5625 5.09375 
Q 40.234375 -1.421875 26.90625 -1.421875 
Q 22.3125 -1.421875 17.546875 -0.640625 
Q 12.796875 0.140625 7.71875 1.703125 
L 7.71875 11.625 
Q 12.109375 9.234375 16.796875 8.0625 
Q 21.484375 6.890625 26.703125 6.890625 
Q 35.15625 6.890625 40.078125 11.328125 
Q 45.015625 15.765625 45.015625 23.390625 
Q 45.015625 31 40.078125 35.4375 
Q 35.15625 39.890625 26.703125 39.890625 
Q 22.75 39.890625 18.8125 39.015625 
Q 14.890625 38.140625 10.796875 36.28125 
z
" id="DejaVuSans-53"/>
      </defs>
      <g transform="translate(303.237783 475.974437)scale(0.1 -0.1)">
       <use xlink:href="#DejaVuSans-53"/>
       <use x="63.623047" xlink:href="#DejaVuSans-48"/>
      </g>
     </g>
    </g>
    <g id="xtick_7">
     <g id="line2d_13">
      <path clip-path="url(#p12b79a6fb2)" d="M 355.832159 461.376 
L 355.832159 62.208 
" style="fill:none;stroke:#b0b0b0;stroke-linecap:square;stroke-width:0.1;"/>
     </g>
     <g id="line2d_14">
      <g>
       <use style="stroke:#000000;stroke-width:0.8;" x="355.832159" xlink:href="#md64404323c" y="461.376"/>
      </g>
     </g>
     <g id="text_7">
      <!-- 60 -->
      <defs>
       <path d="M 33.015625 40.375 
Q 26.375 40.375 22.484375 35.828125 
Q 18.609375 31.296875 18.609375 23.390625 
Q 18.609375 15.53125 22.484375 10.953125 
Q 26.375 6.390625 33.015625 6.390625 
Q 39.65625 6.390625 43.53125 10.953125 
Q 47.40625 15.53125 47.40625 23.390625 
Q 47.40625 31.296875 43.53125 35.828125 
Q 39.65625 40.375 33.015625 40.375 
z
M 52.59375 71.296875 
L 52.59375 62.3125 
Q 48.875 64.0625 45.09375 64.984375 
Q 41.3125 65.921875 37.59375 65.921875 
Q 27.828125 65.921875 22.671875 59.328125 
Q 17.53125 52.734375 16.796875 39.40625 
Q 19.671875 43.65625 24.015625 45.921875 
Q 28.375 48.1875 33.59375 48.1875 
Q 44.578125 48.1875 50.953125 41.515625 
Q 57.328125 34.859375 57.328125 23.390625 
Q 57.328125 12.15625 50.6875 5.359375 
Q 44.046875 -1.421875 33.015625 -1.421875 
Q 20.359375 -1.421875 13.671875 8.265625 
Q 6.984375 17.96875 6.984375 36.375 
Q 6.984375 53.65625 15.1875 63.9375 
Q 23.390625 74.21875 37.203125 74.21875 
Q 40.921875 74.21875 44.703125 73.484375 
Q 48.484375 72.75 52.59375 71.296875 
z
" id="DejaVuSans-54"/>
      </defs>
      <g transform="translate(349.469659 475.974437)scale(0.1 -0.1)">
       <use xlink:href="#DejaVuSans-54"/>
       <use x="63.623047" xlink:href="#DejaVuSans-48"/>
      </g>
     </g>
    </g>
    <g id="xtick_8">
     <g id="line2d_15">
      <path clip-path="url(#p12b79a6fb2)" d="M 402.064036 461.376 
L 402.064036 62.208 
" style="fill:none;stroke:#b0b0b0;stroke-linecap:square;stroke-width:0.1;"/>
     </g>
     <g id="line2d_16">
      <g>
       <use style="stroke:#000000;stroke-width:0.8;" x="402.064036" xlink:href="#md64404323c" y="461.376"/>
      </g>
     </g>
     <g id="text_8">
      <!-- 70 -->
      <defs>
       <path d="M 8.203125 72.90625 
L 55.078125 72.90625 
L 55.078125 68.703125 
L 28.609375 0 
L 18.3125 0 
L 43.21875 64.59375 
L 8.203125 64.59375 
z
" id="DejaVuSans-55"/>
      </defs>
      <g transform="translate(395.701536 475.974437)scale(0.1 -0.1)">
       <use xlink:href="#DejaVuSans-55"/>
       <use x="63.623047" xlink:href="#DejaVuSans-48"/>
      </g>
     </g>
    </g>
    <g id="xtick_9">
     <g id="line2d_17">
      <path clip-path="url(#p12b79a6fb2)" d="M 448.295913 461.376 
L 448.295913 62.208 
" style="fill:none;stroke:#b0b0b0;stroke-linecap:square;stroke-width:0.1;"/>
     </g>
     <g id="line2d_18">
      <g>
       <use style="stroke:#000000;stroke-width:0.8;" x="448.295913" xlink:href="#md64404323c" y="461.376"/>
      </g>
     </g>
     <g id="text_9">
      <!-- 80 -->
      <defs>
       <path d="M 31.78125 34.625 
Q 24.75 34.625 20.71875 30.859375 
Q 16.703125 27.09375 16.703125 20.515625 
Q 16.703125 13.921875 20.71875 10.15625 
Q 24.75 6.390625 31.78125 6.390625 
Q 38.8125 6.390625 42.859375 10.171875 
Q 46.921875 13.96875 46.921875 20.515625 
Q 46.921875 27.09375 42.890625 30.859375 
Q 38.875 34.625 31.78125 34.625 
z
M 21.921875 38.8125 
Q 15.578125 40.375 12.03125 44.71875 
Q 8.5 49.078125 8.5 55.328125 
Q 8.5 64.0625 14.71875 69.140625 
Q 20.953125 74.21875 31.78125 74.21875 
Q 42.671875 74.21875 48.875 69.140625 
Q 55.078125 64.0625 55.078125 55.328125 
Q 55.078125 49.078125 51.53125 44.71875 
Q 48 40.375 41.703125 38.8125 
Q 48.828125 37.15625 52.796875 32.3125 
Q 56.78125 27.484375 56.78125 20.515625 
Q 56.78125 9.90625 50.3125 4.234375 
Q 43.84375 -1.421875 31.78125 -1.421875 
Q 19.734375 -1.421875 13.25 4.234375 
Q 6.78125 9.90625 6.78125 20.515625 
Q 6.78125 27.484375 10.78125 32.3125 
Q 14.796875 37.15625 21.921875 38.8125 
z
M 18.3125 54.390625 
Q 18.3125 48.734375 21.84375 45.5625 
Q 25.390625 42.390625 31.78125 42.390625 
Q 38.140625 42.390625 41.71875 45.5625 
Q 45.3125 48.734375 45.3125 54.390625 
Q 45.3125 60.0625 41.71875 63.234375 
Q 38.140625 66.40625 31.78125 66.40625 
Q 25.390625 66.40625 21.84375 63.234375 
Q 18.3125 60.0625 18.3125 54.390625 
z
" id="DejaVuSans-56"/>
      </defs>
      <g transform="translate(441.933413 475.974437)scale(0.1 -0.1)">
       <use xlink:href="#DejaVuSans-56"/>
       <use x="63.623047" xlink:href="#DejaVuSans-48"/>
      </g>
     </g>
    </g>
    <g id="text_10">
     <!-- Sequence 1 -->
     <defs>
      <path d="M 53.515625 70.515625 
L 53.515625 60.890625 
Q 47.90625 63.578125 42.921875 64.890625 
Q 37.9375 66.21875 33.296875 66.21875 
Q 25.25 66.21875 20.875 63.09375 
Q 16.5 59.96875 16.5 54.203125 
Q 16.5 49.359375 19.40625 46.890625 
Q 22.3125 44.4375 30.421875 42.921875 
L 36.375 41.703125 
Q 47.40625 39.59375 52.65625 34.296875 
Q 57.90625 29 57.90625 20.125 
Q 57.90625 9.515625 50.796875 4.046875 
Q 43.703125 -1.421875 29.984375 -1.421875 
Q 24.8125 -1.421875 18.96875 -0.25 
Q 13.140625 0.921875 6.890625 3.21875 
L 6.890625 13.375 
Q 12.890625 10.015625 18.65625 8.296875 
Q 24.421875 6.59375 29.984375 6.59375 
Q 38.421875 6.59375 43.015625 9.90625 
Q 47.609375 13.234375 47.609375 19.390625 
Q 47.609375 24.75 44.3125 27.78125 
Q 41.015625 30.8125 33.5 32.328125 
L 27.484375 33.5 
Q 16.453125 35.6875 11.515625 40.375 
Q 6.59375 45.0625 6.59375 53.421875 
Q 6.59375 63.09375 13.40625 68.65625 
Q 20.21875 74.21875 32.171875 74.21875 
Q 37.3125 74.21875 42.625 73.28125 
Q 47.953125 72.359375 53.515625 70.515625 
z
" id="DejaVuSans-83"/>
      <path d="M 56.203125 29.59375 
L 56.203125 25.203125 
L 14.890625 25.203125 
Q 15.484375 15.921875 20.484375 11.0625 
Q 25.484375 6.203125 34.421875 6.203125 
Q 39.59375 6.203125 44.453125 7.46875 
Q 49.3125 8.734375 54.109375 11.28125 
L 54.109375 2.78125 
Q 49.265625 0.734375 44.1875 -0.34375 
Q 39.109375 -1.421875 33.890625 -1.421875 
Q 20.796875 -1.421875 13.15625 6.1875 
Q 5.515625 13.8125 5.515625 26.8125 
Q 5.515625 40.234375 12.765625 48.109375 
Q 20.015625 56 32.328125 56 
Q 43.359375 56 49.78125 48.890625 
Q 56.203125 41.796875 56.203125 29.59375 
z
M 47.21875 32.234375 
Q 47.125 39.59375 43.09375 43.984375 
Q 39.0625 48.390625 32.421875 48.390625 
Q 24.90625 48.390625 20.390625 44.140625 
Q 15.875 39.890625 15.1875 32.171875 
z
" id="DejaVuSans-101"/>
      <path d="M 14.796875 27.296875 
Q 14.796875 17.390625 18.875 11.75 
Q 22.953125 6.109375 30.078125 6.109375 
Q 37.203125 6.109375 41.296875 11.75 
Q 45.40625 17.390625 45.40625 27.296875 
Q 45.40625 37.203125 41.296875 42.84375 
Q 37.203125 48.484375 30.078125 48.484375 
Q 22.953125 48.484375 18.875 42.84375 
Q 14.796875 37.203125 14.796875 27.296875 
z
M 45.40625 8.203125 
Q 42.578125 3.328125 38.25 0.953125 
Q 33.9375 -1.421875 27.875 -1.421875 
Q 17.96875 -1.421875 11.734375 6.484375 
Q 5.515625 14.40625 5.515625 27.296875 
Q 5.515625 40.1875 11.734375 48.09375 
Q 17.96875 56 27.875 56 
Q 33.9375 56 38.25 53.625 
Q 42.578125 51.265625 45.40625 46.390625 
L 45.40625 54.6875 
L 54.390625 54.6875 
L 54.390625 -20.796875 
L 45.40625 -20.796875 
z
" id="DejaVuSans-113"/>
      <path d="M 8.5 21.578125 
L 8.5 54.6875 
L 17.484375 54.6875 
L 17.484375 21.921875 
Q 17.484375 14.15625 20.5 10.265625 
Q 23.53125 6.390625 29.59375 6.390625 
Q 36.859375 6.390625 41.078125 11.03125 
Q 45.3125 15.671875 45.3125 23.6875 
L 45.3125 54.6875 
L 54.296875 54.6875 
L 54.296875 0 
L 45.3125 0 
L 45.3125 8.40625 
Q 42.046875 3.421875 37.71875 1 
Q 33.40625 -1.421875 27.6875 -1.421875 
Q 18.265625 -1.421875 13.375 4.4375 
Q 8.5 10.296875 8.5 21.578125 
z
M 31.109375 56 
z
" id="DejaVuSans-117"/>
      <path d="M 54.890625 33.015625 
L 54.890625 0 
L 45.90625 0 
L 45.90625 32.71875 
Q 45.90625 40.484375 42.875 44.328125 
Q 39.84375 48.1875 33.796875 48.1875 
Q 26.515625 48.1875 22.3125 43.546875 
Q 18.109375 38.921875 18.109375 30.90625 
L 18.109375 0 
L 9.078125 0 
L 9.078125 54.6875 
L 18.109375 54.6875 
L 18.109375 46.1875 
Q 21.34375 51.125 25.703125 53.5625 
Q 30.078125 56 35.796875 56 
Q 45.21875 56 50.046875 50.171875 
Q 54.890625 44.34375 54.890625 33.015625 
z
" id="DejaVuSans-110"/>
      <path d="M 48.78125 52.59375 
L 48.78125 44.1875 
Q 44.96875 46.296875 41.140625 47.34375 
Q 37.3125 48.390625 33.40625 48.390625 
Q 24.65625 48.390625 19.8125 42.84375 
Q 14.984375 37.3125 14.984375 27.296875 
Q 14.984375 17.28125 19.8125 11.734375 
Q 24.65625 6.203125 33.40625 6.203125 
Q 37.3125 6.203125 41.140625 7.25 
Q 44.96875 8.296875 48.78125 10.40625 
L 48.78125 2.09375 
Q 45.015625 0.34375 40.984375 -0.53125 
Q 36.96875 -1.421875 32.421875 -1.421875 
Q 20.0625 -1.421875 12.78125 6.34375 
Q 5.515625 14.109375 5.515625 27.296875 
Q 5.515625 40.671875 12.859375 48.328125 
Q 20.21875 56 33.015625 56 
Q 37.15625 56 41.109375 55.140625 
Q 45.0625 54.296875 48.78125 52.59375 
z
" id="DejaVuSans-99"/>
      <path id="DejaVuSans-32"/>
     </defs>
     <g transform="translate(236.244844 489.652562)scale(0.1 -0.1)">
      <use xlink:href="#DejaVuSans-83"/>
      <use x="63.476562" xlink:href="#DejaVuSans-101"/>
      <use x="125" xlink:href="#DejaVuSans-113"/>
      <use x="188.476562" xlink:href="#DejaVuSans-117"/>
      <use x="251.855469" xlink:href="#DejaVuSans-101"/>
      <use x="313.378906" xlink:href="#DejaVuSans-110"/>
      <use x="376.757812" xlink:href="#DejaVuSans-99"/>
      <use x="431.738281" xlink:href="#DejaVuSans-101"/>
      <use x="493.261719" xlink:href="#DejaVuSans-32"/>
      <use x="525.048828" xlink:href="#DejaVuSans-49"/>
     </g>
    </g>
   </g>
   <g id="matplotlib.axis_2">
    <g id="ytick_1">
     <g id="line2d_19">
      <path clip-path="url(#p12b79a6fb2)" d="M 64.8 447.823091 
L 466.56 447.823091 
" style="fill:none;stroke:#b0b0b0;stroke-linecap:square;stroke-width:0.1;"/>
     </g>
     <g id="line2d_20">
      <defs>
       <path d="M 0 0 
L -3.5 0 
" id="m2c4ee47aaf" style="stroke:#000000;stroke-width:0.8;"/>
      </defs>
      <g>
       <use style="stroke:#000000;stroke-width:0.8;" x="64.8" xlink:href="#m2c4ee47aaf" y="447.823091"/>
      </g>
     </g>
     <g id="text_11">
      <!-- 0 -->
      <g transform="translate(51.4375 451.62231)scale(0.1 -0.1)">
       <use xlink:href="#DejaVuSans-48"/>
      </g>
     </g>
    </g>
    <g id="ytick_2">
     <g id="line2d_21">
      <path clip-path="url(#p12b79a6fb2)" d="M 64.8 401.889488 
L 466.56 401.889488 
" style="fill:none;stroke:#b0b0b0;stroke-linecap:square;stroke-width:0.1;"/>
     </g>
     <g id="line2d_22">
      <g>
       <use style="stroke:#000000;stroke-width:0.8;" x="64.8" xlink:href="#m2c4ee47aaf" y="401.889488"/>
      </g>
     </g>
     <g id="text_12">
      <!-- 10 -->
      <g transform="translate(45.075 405.688707)scale(0.1 -0.1)">
       <use xlink:href="#DejaVuSans-49"/>
       <use x="63.623047" xlink:href="#DejaVuSans-48"/>
      </g>
     </g>
    </g>
    <g id="ytick_3">
     <g id="line2d_23">
      <path clip-path="url(#p12b79a6fb2)" d="M 64.8 355.955886 
L 466.56 355.955886 
" style="fill:none;stroke:#b0b0b0;stroke-linecap:square;stroke-width:0.1;"/>
     </g>
     <g id="line2d_24">
      <g>
       <use style="stroke:#000000;stroke-width:0.8;" x="64.8" xlink:href="#m2c4ee47aaf" y="355.955886"/>
      </g>
     </g>
     <g id="text_13">
      <!-- 20 -->
      <g transform="translate(45.075 359.755104)scale(0.1 -0.1)">
       <use xlink:href="#DejaVuSans-50"/>
       <use x="63.623047" xlink:href="#DejaVuSans-48"/>
      </g>
     </g>
    </g>
    <g id="ytick_4">
     <g id="line2d_25">
      <path clip-path="url(#p12b79a6fb2)" d="M 64.8 310.022283 
L 466.56 310.022283 
" style="fill:none;stroke:#b0b0b0;stroke-linecap:square;stroke-width:0.1;"/>
     </g>
     <g id="line2d_26">
      <g>
       <use style="stroke:#000000;stroke-width:0.8;" x="64.8" xlink:href="#m2c4ee47aaf" y="310.022283"/>
      </g>
     </g>
     <g id="text_14">
      <!-- 30 -->
      <g transform="translate(45.075 313.821502)scale(0.1 -0.1)">
       <use xlink:href="#DejaVuSans-51"/>
       <use x="63.623047" xlink:href="#DejaVuSans-48"/>
      </g>
     </g>
    </g>
    <g id="ytick_5">
     <g id="line2d_27">
      <path clip-path="url(#p12b79a6fb2)" d="M 64.8 264.08868 
L 466.56 264.08868 
" style="fill:none;stroke:#b0b0b0;stroke-linecap:square;stroke-width:0.1;"/>
     </g>
     <g id="line2d_28">
      <g>
       <use style="stroke:#000000;stroke-width:0.8;" x="64.8" xlink:href="#m2c4ee47aaf" y="264.08868"/>
      </g>
     </g>
     <g id="text_15">
      <!-- 40 -->
      <g transform="translate(45.075 267.887899)scale(0.1 -0.1)">
       <use xlink:href="#DejaVuSans-52"/>
       <use x="63.623047" xlink:href="#DejaVuSans-48"/>
      </g>
     </g>
    </g>
    <g id="ytick_6">
     <g id="line2d_29">
      <path clip-path="url(#p12b79a6fb2)" d="M 64.8 218.155077 
L 466.56 218.155077 
" style="fill:none;stroke:#b0b0b0;stroke-linecap:square;stroke-width:0.1;"/>
     </g>
     <g id="line2d_30">
      <g>
       <use style="stroke:#000000;stroke-width:0.8;" x="64.8" xlink:href="#m2c4ee47aaf" y="218.155077"/>
      </g>
     </g>
     <g id="text_16">
      <!-- 50 -->
      <g transform="translate(45.075 221.954296)scale(0.1 -0.1)">
       <use xlink:href="#DejaVuSans-53"/>
       <use x="63.623047" xlink:href="#DejaVuSans-48"/>
      </g>
     </g>
    </g>
    <g id="ytick_7">
     <g id="line2d_31">
      <path clip-path="url(#p12b79a6fb2)" d="M 64.8 172.221475 
L 466.56 172.221475 
" style="fill:none;stroke:#b0b0b0;stroke-linecap:square;stroke-width:0.1;"/>
     </g>
     <g id="line2d_32">
      <g>
       <use style="stroke:#000000;stroke-width:0.8;" x="64.8" xlink:href="#m2c4ee47aaf" y="172.221475"/>
      </g>
     </g>
     <g id="text_17">
      <!-- 60 -->
      <g transform="translate(45.075 176.020693)scale(0.1 -0.1)">
       <use xlink:href="#DejaVuSans-54"/>
       <use x="63.623047" xlink:href="#DejaVuSans-48"/>
      </g>
     </g>
    </g>
    <g id="ytick_8">
     <g id="line2d_33">
      <path clip-path="url(#p12b79a6fb2)" d="M 64.8 126.287872 
L 466.56 126.287872 
" style="fill:none;stroke:#b0b0b0;stroke-linecap:square;stroke-width:0.1;"/>
     </g>
     <g id="line2d_34">
      <g>
       <use style="stroke:#000000;stroke-width:0.8;" x="64.8" xlink:href="#m2c4ee47aaf" y="126.287872"/>
      </g>
     </g>
     <g id="text_18">
      <!-- 70 -->
      <g transform="translate(45.075 130.087091)scale(0.1 -0.1)">
       <use xlink:href="#DejaVuSans-55"/>
       <use x="63.623047" xlink:href="#DejaVuSans-48"/>
      </g>
     </g>
    </g>
    <g id="ytick_9">
     <g id="line2d_35">
      <path clip-path="url(#p12b79a6fb2)" d="M 64.8 80.354269 
L 466.56 80.354269 
" style="fill:none;stroke:#b0b0b0;stroke-linecap:square;stroke-width:0.1;"/>
     </g>
     <g id="line2d_36">
      <g>
       <use style="stroke:#000000;stroke-width:0.8;" x="64.8" xlink:href="#m2c4ee47aaf" y="80.354269"/>
      </g>
     </g>
     <g id="text_19">
      <!-- 80 -->
      <g transform="translate(45.075 84.153488)scale(0.1 -0.1)">
       <use xlink:href="#DejaVuSans-56"/>
       <use x="63.623047" xlink:href="#DejaVuSans-48"/>
      </g>
     </g>
    </g>
    <g id="text_20">
     <!-- Sequence 2 -->
     <g transform="translate(38.995312 291.227156)rotate(-90)scale(0.1 -0.1)">
      <use xlink:href="#DejaVuSans-83"/>
      <use x="63.476562" xlink:href="#DejaVuSans-101"/>
      <use x="125" xlink:href="#DejaVuSans-113"/>
      <use x="188.476562" xlink:href="#DejaVuSans-117"/>
      <use x="251.855469" xlink:href="#DejaVuSans-101"/>
      <use x="313.378906" xlink:href="#DejaVuSans-110"/>
      <use x="376.757812" xlink:href="#DejaVuSans-99"/>
      <use x="431.738281" xlink:href="#DejaVuSans-101"/>
      <use x="493.261719" xlink:href="#DejaVuSans-32"/>
      <use x="525.048828" xlink:href="#DejaVuSans-50"/>
     </g>
    </g>
   </g>
   <g id="patch_3">
    <path d="M 64.8 461.376 
L 64.8 62.208 
" style="fill:none;stroke:#000000;stroke-linecap:square;stroke-linejoin:miter;stroke-width:0.8;"/>
   </g>
   <g id="patch_4">
    <path d="M 466.56 461.376 
L 466.56 62.208 
" style="fill:none;stroke:#000000;stroke-linecap:square;stroke-linejoin:miter;stroke-width:0.8;"/>
   </g>
   <g id="patch_5">
    <path d="M 64.8 461.376 
L 466.56 461.376 
" style="fill:none;stroke:#000000;stroke-linecap:square;stroke-linejoin:miter;stroke-width:0.8;"/>
   </g>
   <g id="patch_6">
    <path d="M 64.8 62.208 
L 466.56 62.208 
" style="fill:none;stroke:#000000;stroke-linecap:square;stroke-linejoin:miter;stroke-width:0.8;"/>
   </g>
  </g>
 </g>
 <defs>
  <clipPath id="p12b79a6fb2">
   <rect height="399.168" width="401.76" x="64.8" y="62.208"/>
  </clipPath>
 </defs>
</svg>
